<svg width="21" height="20" viewBox="0 0 21 20" fill="none" xmlns="http://www.w3.org/2000/svg">
<mask id="mask0_2034_67" style="mask-type:luminance" maskUnits="userSpaceOnUse" x="0" y="0" width="21" height="20">
<path d="M10.5 19C11.6821 19.0015 12.8529 18.7693 13.945 18.3169C15.0371 17.8645 16.0291 17.2008 16.8639 16.3639C17.7008 15.5291 18.3645 14.5371 18.8169 13.445C19.2693 12.3529 19.5015 11.1821 19.5 10C19.5015 8.81789 19.2693 7.64714 18.8169 6.55502C18.3645 5.4629 17.7008 4.47093 16.8639 3.6361C16.0291 2.79918 15.0371 2.13545 13.945 1.68307C12.8529 1.23068 11.6821 0.998549 10.5 1.00001C9.31789 0.998549 8.14714 1.23068 7.05502 1.68307C5.9629 2.13545 4.97093 2.79918 4.1361 3.6361C3.29918 4.47093 2.63545 5.4629 2.18307 6.55502C1.73068 7.64714 1.49855 8.81789 1.50001 10C1.49855 11.1821 1.73068 12.3529 2.18307 13.445C2.63545 14.5371 3.29918 15.5291 4.1361 16.3639C4.97093 17.2008 5.9629 17.8645 7.05502 18.3169C8.14714 18.7693 9.31789 19.0015 10.5 19Z" fill="white" stroke="white" stroke-width="2" stroke-linejoin="round"/>
<path d="M6.5 10L9.5 13L15.5 7" stroke="black" stroke-width="2" stroke-linecap="round" stroke-linejoin="round"/>
</mask>
<g mask="url(#mask0_2034_67)">
<path d="M-1.5 -2H22.5V22H-1.5V-2Z" fill="#269FFF"/>
</g>
</svg>
