<svg width="120" height="120" viewBox="0 0 120 120" fill="none" xmlns="http://www.w3.org/2000/svg">
<g clip-path="url(#clip0_1311_545)">
<path d="M110.096 39.7763C106.702 40.6977 104.696 44.1961 105.617 47.5906C106.708 51.6114 107.261 55.7874 107.261 59.9994C107.261 72.6237 102.345 84.4922 93.4192 93.4192C84.4922 102.346 72.6237 107.261 59.9994 107.261C47.375 107.261 35.5065 102.345 26.5795 93.4192C17.6525 84.4922 12.7373 72.6237 12.7373 59.9994C12.7373 47.375 17.6538 35.5065 26.5795 26.5795C35.5065 17.6525 47.375 12.7373 59.9994 12.7373C66.316 12.7373 72.4453 13.9603 78.2178 16.3743C81.4622 17.7308 85.1929 16.2011 86.5507 12.9555C87.9072 9.70986 86.3774 5.98043 83.1318 4.62264C75.7949 1.55543 68.0126 0 59.9994 0C51.9861 0 44.0434 1.58751 36.6423 4.71761C29.4966 7.73991 23.0811 12.0648 17.573 17.573C12.0648 23.0811 7.73991 29.4966 4.71761 36.6423C1.58751 44.0447 0 51.9027 0 59.9994C0 68.096 1.58751 75.9553 4.71761 83.3564C7.73991 90.5021 12.0648 96.9176 17.573 102.426C23.0811 107.934 29.4966 112.259 36.6423 115.281C44.0434 118.411 51.9014 119.999 59.9994 119.999C68.0973 119.999 75.9553 118.411 83.3564 115.281C90.5021 112.259 96.9176 107.934 102.426 102.426C107.934 96.9176 112.259 90.5021 115.281 83.3564C118.411 75.9553 119.999 68.0973 119.999 59.9994C119.999 54.6606 119.297 49.3629 117.911 44.2552C116.991 40.8607 113.493 38.8561 110.096 39.7763Z" fill="url(#paint0_linear_1311_545)"/>
<path d="M40.1122 52.6074C37.625 50.1202 33.5927 50.1202 31.1056 52.6074C28.6184 55.0945 28.6184 59.1268 31.1056 61.6139L52.3772 82.8855C53.5745 84.0829 55.1954 84.7502 56.8805 84.7502C56.9985 84.7502 57.1153 84.7464 57.2334 84.74C59.0429 84.6399 60.7228 83.7736 61.8547 82.3581L107.32 25.4939C109.516 22.7463 109.071 18.7397 106.323 16.5426C103.575 14.3455 99.5687 14.7921 97.3716 17.5397L56.3504 68.8469L40.1109 52.6074H40.1122Z" fill="url(#paint1_linear_1311_545)"/>
</g>
<defs>
<linearGradient id="paint0_linear_1311_545" x1="26.8452" y1="100.185" x2="103.212" y2="7.62184" gradientUnits="userSpaceOnUse">
<stop stop-color="#36B5FF"/>
<stop offset="1" stop-color="#8DD9FF"/>
</linearGradient>
<linearGradient id="paint1_linear_1311_545" x1="29.2396" y1="49.9495" x2="108.715" y2="49.9495" gradientUnits="userSpaceOnUse">
<stop stop-color="#36B5FF"/>
<stop offset="1" stop-color="#8DD9FF"/>
</linearGradient>
<clipPath id="clip0_1311_545">
<rect width="120" height="120" fill="white"/>
</clipPath>
</defs>
</svg>
