<svg width="53" height="56" viewBox="0 0 53 56" fill="none" xmlns="http://www.w3.org/2000/svg">
<rect width="53" height="56" rx="3" fill="#214C97" fill-opacity="0.4"/>
<path d="M41.2313 41.2582L36.9813 35.9457C36.858 35.7885 36.693 35.6693 36.5051 35.6016C36.3171 35.534 36.1139 35.5207 35.9188 35.5632L26.59 37.667L17.2613 35.542C17.0661 35.4994 16.8629 35.5127 16.675 35.5804C16.4871 35.648 16.322 35.7673 16.1988 35.9245L11.9488 41.237C11.8255 41.3925 11.7482 41.5794 11.7256 41.7766C11.7031 41.9737 11.7362 42.1733 11.8213 42.3526C11.9043 42.5374 12.0385 42.6946 12.2079 42.8056C12.3773 42.9167 12.575 42.977 12.7775 42.9795H40.4025C40.6028 42.9789 40.7988 42.9218 40.968 42.8146C41.1372 42.7074 41.2727 42.5547 41.3588 42.3739C41.4438 42.1945 41.477 41.995 41.4545 41.7978C41.4319 41.6006 41.3546 41.4137 41.2313 41.2582Z" fill="url(#paint0_linear_1448_236)"/>
<path d="M12.2675 19.4556L26.4519 23.4506L41.0931 19.3387C41.2084 19.2401 41.3012 19.118 41.3654 18.9805C41.4295 18.8431 41.4635 18.6935 41.465 18.5418C41.4751 18.3061 41.4064 18.0737 41.2698 17.8813C41.1332 17.689 40.9365 17.5475 40.7106 17.4793L26.8981 13.2293C26.6961 13.1762 26.4839 13.1762 26.2819 13.2293L12.4694 17.4793C12.2733 17.5424 12.0997 17.6612 11.9699 17.8212C11.8401 17.9812 11.7596 18.1755 11.7382 18.3804C11.7168 18.5853 11.7554 18.792 11.8494 18.9754C11.9434 19.1587 12.0886 19.3108 12.2675 19.4131V19.4556Z" fill="url(#paint1_linear_1448_236)"/>
<path d="M26.7386 25.5754C26.5516 25.6321 26.3519 25.6321 26.1648 25.5754L18.6211 23.4504V28.4016C18.6239 30.2521 19.3603 32.026 20.6688 33.3345C21.9773 34.6431 23.7512 35.3794 25.6017 35.3822H27.578C29.4285 35.3794 31.2024 34.6431 32.5109 33.3345C33.8194 32.026 34.5558 30.2521 34.5586 28.4016V23.376L26.7386 25.5754Z" fill="url(#paint2_linear_1448_236)"/>
<defs>
<linearGradient id="paint0_linear_1448_236" x1="11.7187" y1="39.2216" x2="41.4478" y2="39.2216" gradientUnits="userSpaceOnUse">
<stop stop-color="#00C0FD"/>
<stop offset="1" stop-color="#00DAFF"/>
</linearGradient>
<linearGradient id="paint1_linear_1448_236" x1="11.7324" y1="18.283" x2="41.4525" y2="18.283" gradientUnits="userSpaceOnUse">
<stop stop-color="#00C0FD"/>
<stop offset="1" stop-color="#00DAFF"/>
</linearGradient>
<linearGradient id="paint2_linear_1448_236" x1="18.6211" y1="29.3358" x2="34.5514" y2="29.3358" gradientUnits="userSpaceOnUse">
<stop stop-color="#00C0FD"/>
<stop offset="1" stop-color="#00DAFF"/>
</linearGradient>
</defs>
</svg>
