<svg width="53" height="56" viewBox="0 0 53 56" fill="none" xmlns="http://www.w3.org/2000/svg">
<rect width="53" height="56" rx="3" fill="#214C97" fill-opacity="0.4"/>
<path fill-rule="evenodd" clip-rule="evenodd" d="M18.5898 14.1045C16.933 14.1045 15.5898 15.4476 15.5898 17.1045V39.1045C15.5898 40.7613 16.933 42.1045 18.5898 42.1045H35.5898C37.2467 42.1045 38.5898 40.7613 38.5898 39.1045V17.1045C38.5898 15.4476 37.2467 14.1045 35.5898 14.1045H18.5898ZM35.1872 29.081C35.5594 29.4614 35.5594 30.0782 35.1872 30.4587L27.9608 37.8437C27.5885 38.2241 26.985 38.2241 26.6127 37.8437C26.6044 37.8353 26.5964 37.8267 26.5885 37.818L23.2026 34.3579C22.8296 33.9766 22.8296 33.3586 23.2026 32.9773C23.5757 32.5961 24.1805 32.5961 24.5535 32.9773L27.29 35.7739L33.8391 29.081C34.2114 28.7006 34.8149 28.7006 35.1872 29.081ZM18.5898 21.4994C18.5898 20.9471 19.0376 20.4994 19.5898 20.4994H29.5898C30.1421 20.4994 30.5898 20.9471 30.5898 21.4994V21.5735C30.5898 22.1257 30.1421 22.5735 29.5898 22.5735H19.5898C19.0376 22.5735 18.5898 22.1257 18.5898 21.5735V21.4994ZM19.5898 24.6475C19.0376 24.6475 18.5898 25.0952 18.5898 25.6475V25.7216C18.5898 26.2739 19.0376 26.7216 19.5898 26.7216H25.5898C26.1421 26.7216 26.5898 26.2739 26.5898 25.7216V25.6475C26.5898 25.0952 26.1421 24.6475 25.5898 24.6475H19.5898Z" fill="url(#paint0_linear_1448_244)"/>
<defs>
<linearGradient id="paint0_linear_1448_244" x1="15.5898" y1="28.0034" x2="38.5794" y2="28.0034" gradientUnits="userSpaceOnUse">
<stop stop-color="#00C0FD"/>
<stop offset="1" stop-color="#00DAFF"/>
</linearGradient>
</defs>
</svg>
