<svg width="53" height="56" viewBox="0 0 53 56" fill="none" xmlns="http://www.w3.org/2000/svg">
<rect width="53" height="56" rx="3" fill="#214C97" fill-opacity="0.4"/>
<path d="M17.0273 27.042H14.9023C14.057 27.042 13.2462 27.3778 12.6484 27.9756C12.0507 28.5734 11.7148 29.3841 11.7148 30.2295V40.8545C11.7148 41.1363 11.8268 41.4065 12.026 41.6058C12.2253 41.8051 12.4956 41.917 12.7773 41.917H17.0273V27.042Z" fill="url(#paint0_linear_1448_216)"/>
<path d="M27.6523 31.292H25.5273V41.917H27.6523V31.292Z" fill="url(#paint1_linear_1448_216)"/>
<path d="M34.0273 27.0424V18.5424C34.0264 18.3674 33.9823 18.1953 33.8989 18.0414C33.8155 17.8876 33.6954 17.7567 33.5492 17.6605L27.1742 13.4105C27.0007 13.2962 26.7976 13.2354 26.5898 13.2354C26.3821 13.2354 26.179 13.2962 26.0055 13.4105L19.6305 17.6605C19.4843 17.7567 19.3642 17.8876 19.2808 18.0414C19.1974 18.1953 19.1532 18.3674 19.1523 18.5424V41.9174H23.4023V30.2299C23.4023 29.9481 23.5143 29.6778 23.7135 29.4786C23.9128 29.2793 24.1831 29.1674 24.4648 29.1674H28.7148C28.9966 29.1674 29.2669 29.2793 29.4661 29.4786C29.6654 29.6778 29.7773 29.9481 29.7773 30.2299V41.9174H34.0273V27.0424ZM28.7148 25.9799H24.4648C24.1831 25.9799 23.9128 25.8679 23.7135 25.6687C23.5143 25.4694 23.4023 25.1992 23.4023 24.9174C23.4023 24.6356 23.5143 24.3653 23.7135 24.1661C23.9128 23.9668 24.1831 23.8549 24.4648 23.8549H28.7148C28.9966 23.8549 29.2669 23.9668 29.4661 24.1661C29.6654 24.3653 29.7773 24.6356 29.7773 24.9174C29.7773 25.1992 29.6654 25.4694 29.4661 25.6687C29.2669 25.8679 28.9966 25.9799 28.7148 25.9799ZM28.7148 21.7299H24.4648C24.1831 21.7299 23.9128 21.6179 23.7135 21.4187C23.5143 21.2194 23.4023 20.9492 23.4023 20.6674C23.4023 20.3856 23.5143 20.1153 23.7135 19.9161C23.9128 19.7168 24.1831 19.6049 24.4648 19.6049H28.7148C28.9966 19.6049 29.2669 19.7168 29.4661 19.9161C29.6654 20.1153 29.7773 20.3856 29.7773 20.6674C29.7773 20.9492 29.6654 21.2194 29.4661 21.4187C29.2669 21.6179 28.9966 21.7299 28.7148 21.7299Z" fill="url(#paint2_linear_1448_216)"/>
<path d="M38.2773 27.042H36.1523V41.917H40.4023C40.6841 41.917 40.9544 41.8051 41.1536 41.6058C41.3529 41.4065 41.4648 41.1363 41.4648 40.8545V30.2295C41.4648 29.3841 41.129 28.5734 40.5312 27.9756C39.9335 27.3778 39.1227 27.042 38.2773 27.042Z" fill="url(#paint3_linear_1448_216)"/>
<defs>
<linearGradient id="paint0_linear_1448_216" x1="11.7148" y1="34.4258" x2="17.0249" y2="34.4258" gradientUnits="userSpaceOnUse">
<stop stop-color="#00C0FD"/>
<stop offset="1" stop-color="#00DAFF"/>
</linearGradient>
<linearGradient id="paint1_linear_1448_216" x1="25.5273" y1="36.5661" x2="27.6514" y2="36.5661" gradientUnits="userSpaceOnUse">
<stop stop-color="#00C0FD"/>
<stop offset="1" stop-color="#00DAFF"/>
</linearGradient>
<linearGradient id="paint2_linear_1448_216" x1="19.1523" y1="27.4728" x2="34.0206" y2="27.4728" gradientUnits="userSpaceOnUse">
<stop stop-color="#00C0FD"/>
<stop offset="1" stop-color="#00DAFF"/>
</linearGradient>
<linearGradient id="paint3_linear_1448_216" x1="36.1523" y1="34.4258" x2="41.4624" y2="34.4258" gradientUnits="userSpaceOnUse">
<stop stop-color="#00C0FD"/>
<stop offset="1" stop-color="#00DAFF"/>
</linearGradient>
</defs>
</svg>
