<svg width="53" height="56" viewBox="0 0 53 56" fill="none" xmlns="http://www.w3.org/2000/svg">
<rect width="53" height="56" rx="3" fill="#214C97" fill-opacity="0.4"/>
<path fill-rule="evenodd" clip-rule="evenodd" d="M20.2148 17.4795H22.3398H25.5273H27.6523H28.7148H38.2773C39.1227 17.4795 39.9335 17.8153 40.5312 18.4131C41.129 19.0109 41.4648 19.8216 41.4648 20.667V35.542C41.4648 36.3874 41.129 37.1981 40.5312 37.7959C39.9335 38.3937 39.1227 38.7295 38.2773 38.7295H28.7148H27.6523H25.5273H15.9648H14.9023C14.057 38.7295 13.2462 38.3937 12.6484 37.7959C12.0507 37.1981 11.7148 36.3874 11.7148 35.542V20.667C11.7148 19.8216 12.0507 19.0109 12.6484 18.4131C13.2462 17.8153 14.057 17.4795 14.9023 17.4795H15.9648H20.2148ZM36.1523 33.417H30.8398C30.5581 33.417 30.2878 33.3051 30.0885 33.1058C29.8893 32.9065 29.7773 32.6363 29.7773 32.3545C29.7773 32.0727 29.8893 31.8024 30.0885 31.6032C30.2878 31.4039 30.5581 31.292 30.8398 31.292H36.1523C36.4341 31.292 36.7044 31.4039 36.9036 31.6032C37.1029 31.8024 37.2148 32.0727 37.2148 32.3545C37.2148 32.6363 37.1029 32.9065 36.9036 33.1058C36.7044 33.3051 36.4341 33.417 36.1523 33.417ZM36.1523 29.167H32.9648C32.6831 29.167 32.4128 29.0551 32.2135 28.8558C32.0143 28.6565 31.9023 28.3863 31.9023 28.1045C31.9023 27.8227 32.0143 27.5524 32.2135 27.3532C32.4128 27.1539 32.6831 27.042 32.9648 27.042H36.1523C36.4341 27.042 36.7044 27.1539 36.9036 27.3532C37.1029 27.5524 37.2148 27.8227 37.2148 28.1045C37.2148 28.3863 37.1029 28.6565 36.9036 28.8558C36.7044 29.0551 36.4341 29.167 36.1523 29.167ZM36.1523 24.917H30.8398C30.5581 24.917 30.2878 24.8051 30.0885 24.6058C29.8893 24.4065 29.7773 24.1363 29.7773 23.8545C29.7773 23.5727 29.8893 23.3024 30.0885 23.1032C30.2878 22.9039 30.5581 22.792 30.8398 22.792H36.1523C36.4341 22.792 36.7044 22.9039 36.9036 23.1032C37.1029 23.3024 37.2148 23.5727 37.2148 23.8545C37.2148 24.1363 37.1029 24.4065 36.9036 24.6058C36.7044 24.8051 36.4341 24.917 36.1523 24.917Z" fill="url(#paint0_linear_1448_114)"/>
<defs>
<linearGradient id="paint0_linear_1448_114" x1="11.7148" y1="28.0278" x2="41.4514" y2="28.0278" gradientUnits="userSpaceOnUse">
<stop stop-color="#00C0FD"/>
<stop offset="1" stop-color="#00DAFF"/>
</linearGradient>
</defs>
</svg>
