<svg width="53" height="56" viewBox="0 0 53 56" fill="none" xmlns="http://www.w3.org/2000/svg">
<rect width="53" height="56" rx="3" fill="#214C97" fill-opacity="0.4"/>
<path d="M36 15.5C36 14.6716 36.6716 14 37.5 14H40.5C41.3284 14 42 14.6716 42 15.5V17H36V15.5Z" fill="url(#paint0_linear_1448_204)"/>
<path fill-rule="evenodd" clip-rule="evenodd" d="M42 18H36V36.2L39 39L42 36.2V18Z" fill="url(#paint1_linear_1448_204)"/>
<path d="M36 41.5C36 41.2239 36.1679 41 36.375 41H41.625C41.8321 41 42 41.2239 42 41.5C42 41.7761 41.8321 42 41.625 42H36.375C36.1679 42 36 41.7761 36 41.5Z" fill="url(#paint2_linear_1448_204)"/>
<rect x="12" y="14" width="20" height="28" rx="3" fill="url(#paint3_linear_1448_204)"/>
<defs>
<linearGradient id="paint0_linear_1448_204" x1="36" y1="15.4892" x2="41.9973" y2="15.4892" gradientUnits="userSpaceOnUse">
<stop stop-color="#00C0FD"/>
<stop offset="1" stop-color="#00DAFF"/>
</linearGradient>
<linearGradient id="paint1_linear_1448_204" x1="36" y1="28.4242" x2="41.9973" y2="28.4242" gradientUnits="userSpaceOnUse">
<stop stop-color="#00C0FD"/>
<stop offset="1" stop-color="#00DAFF"/>
</linearGradient>
<linearGradient id="paint2_linear_1448_204" x1="36" y1="41.4964" x2="41.9973" y2="41.4964" gradientUnits="userSpaceOnUse">
<stop stop-color="#00C0FD"/>
<stop offset="1" stop-color="#00DAFF"/>
</linearGradient>
<linearGradient id="paint3_linear_1448_204" x1="12" y1="27.8989" x2="31.9909" y2="27.8989" gradientUnits="userSpaceOnUse">
<stop stop-color="#00C0FD"/>
<stop offset="1" stop-color="#00DAFF"/>
</linearGradient>
</defs>
</svg>
