<svg width="53" height="56" viewBox="0 0 53 56" fill="none" xmlns="http://www.w3.org/2000/svg">
<rect width="53" height="56" rx="3" fill="#214C97" fill-opacity="0.4"/>
<path d="M15.2559 16.7708C15.2559 15.206 16.5244 13.9375 18.0892 13.9375H37.9225V38.0208H15.2559V16.7708Z" fill="url(#paint0_linear_1448_211)"/>
<path fill-rule="evenodd" clip-rule="evenodd" d="M18.3142 38.7293C17.9286 38.7293 17.5587 38.8825 17.2861 39.1552C17.0134 39.4279 16.8602 39.7977 16.8602 40.1833C16.8602 40.5689 17.0134 40.9387 17.2861 41.2114C17.5587 41.4841 17.9286 41.6373 18.3142 41.6373H36.1513C35.8982 41.199 35.7617 40.6982 35.7617 40.1833C35.7617 39.6684 35.8982 39.1676 36.1513 38.7293H18.3142ZM16.258 38.1271C16.8033 37.5818 17.5429 37.2754 18.3142 37.2754H38.6696V38.7293C38.284 38.7293 37.9142 38.8825 37.6415 39.1552C37.3688 39.4279 37.2156 39.7977 37.2156 40.1833C37.2156 40.5689 37.3688 40.9387 37.6415 41.2114C37.9142 41.4841 38.284 41.6373 38.6696 41.6373V43.0912H18.3142C17.5429 43.0912 16.8033 42.7849 16.258 42.2395C15.7126 41.6942 15.4062 40.9545 15.4062 40.1833C15.4062 39.4121 15.7126 38.6724 16.258 38.1271Z" fill="url(#paint1_linear_1448_211)"/>
<defs>
<linearGradient id="paint0_linear_1448_211" x1="15.2559" y1="25.8922" x2="37.9123" y2="25.8922" gradientUnits="userSpaceOnUse">
<stop stop-color="#00C0FD"/>
<stop offset="1" stop-color="#00DAFF"/>
</linearGradient>
<linearGradient id="paint1_linear_1448_211" x1="15.4062" y1="40.1623" x2="38.6591" y2="40.1623" gradientUnits="userSpaceOnUse">
<stop stop-color="#00C0FD"/>
<stop offset="1" stop-color="#00DAFF"/>
</linearGradient>
</defs>
</svg>
