<svg width="25" height="20" viewBox="0 0 25 20" fill="none" xmlns="http://www.w3.org/2000/svg">
<path d="M23.1072 14.8934V7.3525L12.9837 12.8421C12.638 13.0414 12.2725 13.141 11.8872 13.141C11.5028 13.141 11.1344 13.0409 10.7822 12.8407L1.09925 7.55083C0.894306 7.42806 0.743194 7.28261 0.645917 7.1145C0.548639 6.94639 0.5 6.76033 0.5 6.55633C0.5 6.35233 0.548639 6.16628 0.645917 5.99817C0.743194 5.83006 0.894306 5.68461 1.09925 5.56183L10.7808 0.286166C10.9526 0.189833 11.1297 0.118055 11.312 0.0708329C11.4933 0.0236107 11.6836 0 11.8829 0C12.0822 0 12.2725 0.0245549 12.4538 0.0736661C12.6352 0.122777 12.8118 0.197861 12.9837 0.298917L23.9161 6.22058C24.1097 6.3188 24.2594 6.46047 24.3652 6.64558C24.4709 6.83069 24.5238 7.02997 24.5238 7.24342V14.8934C24.5238 15.0936 24.4558 15.2618 24.3198 15.3977C24.1838 15.5338 24.0157 15.6018 23.8155 15.6018C23.6153 15.6018 23.4467 15.5338 23.3098 15.3977C23.1728 15.2618 23.1053 15.0936 23.1072 14.8934ZM10.7822 19.6803L4.5715 16.3172C4.20789 16.1113 3.91889 15.827 3.7045 15.4643C3.49011 15.1045 3.38292 14.7149 3.38292 14.2956V9.89258L10.7822 13.906C11.1278 14.1053 11.4933 14.2049 11.8787 14.2049C12.2631 14.2049 12.6314 14.1048 12.9837 13.9046L20.3829 9.89117V14.2984C20.3829 14.7234 20.2757 15.1154 20.0613 15.4743C19.8469 15.8313 19.5584 16.1127 19.1958 16.3186L12.9837 19.6803C12.8099 19.7795 12.6314 19.8541 12.4482 19.9042C12.2649 19.9542 12.0765 19.9793 11.8829 19.9793C11.6893 19.9793 11.5009 19.9542 11.3177 19.9042C11.1344 19.8541 10.9559 19.7795 10.7822 19.6803Z" fill="#269FFF"/>
</svg>
