<svg width="25" height="25" viewBox="0 0 25 25" fill="none" xmlns="http://www.w3.org/2000/svg">
<path fill-rule="evenodd" clip-rule="evenodd" d="M7.28607 3C6.14962 3 5.05969 3.45134 4.25594 4.25478C3.4522 5.05822 3.00044 6.14797 3 7.28442V18.7139C3 19.8507 3.45157 20.9408 4.25536 21.7446C5.05915 22.5484 6.14933 23 7.28607 23H18.7156C19.852 22.9996 20.9418 22.5478 21.7452 21.7441C22.5487 20.9403 23 19.8504 23 18.7139V7.28442C22.9996 6.14826 22.548 5.05875 21.7446 4.25536C20.9412 3.45197 19.8517 3.00044 18.7156 3H7.28607ZM19.9484 7.29101C19.9484 7.61841 19.8183 7.9324 19.5868 8.1639C19.3553 8.39541 19.0413 8.52547 18.7139 8.52547C18.3865 8.52547 18.0725 8.39541 17.841 8.1639C17.6095 7.9324 17.4795 7.61841 17.4795 7.29101C17.4795 6.9636 17.6095 6.64961 17.841 6.41811C18.0725 6.1866 18.3865 6.05654 18.7139 6.05654C19.0413 6.05654 19.3553 6.1866 19.5868 6.41811C19.8183 6.64961 19.9484 6.9636 19.9484 7.29101ZM13.0025 9.57559C12.0945 9.57559 11.2237 9.93629 10.5816 10.5783C9.93958 11.2204 9.57888 12.0912 9.57888 12.9992C9.57888 13.9072 9.93958 14.778 10.5816 15.42C11.2237 16.0621 12.0945 16.4228 13.0025 16.4228C13.9105 16.4228 14.7813 16.0621 15.4233 15.42C16.0654 14.778 16.4261 13.9072 16.4261 12.9992C16.4261 12.0912 16.0654 11.2204 15.4233 10.5783C14.7813 9.93629 13.9105 9.57559 13.0025 9.57559ZM7.93128 12.9992C7.93128 11.6547 8.46539 10.3652 9.41611 9.41447C10.3668 8.46375 11.6563 7.92964 13.0008 7.92964C14.3453 7.92964 15.6348 8.46375 16.5855 9.41447C17.5363 10.3652 18.0704 11.6547 18.0704 12.9992C18.0704 14.3437 17.5363 15.6332 16.5855 16.5839C15.6348 17.5346 14.3453 18.0687 13.0008 18.0687C11.6563 18.0687 10.3668 17.5346 9.41611 16.5839C8.46539 15.6332 7.93128 14.3437 7.93128 12.9992Z" fill="#BDBDBD"/>
</svg>
