<svg width="18" height="17" viewBox="0 0 18 17" fill="none" xmlns="http://www.w3.org/2000/svg">
<path fill-rule="evenodd" clip-rule="evenodd" d="M1 2.52249H13.8263L13.8306 2.52262C13.8385 2.52289 13.8537 2.52356 13.8753 2.52515C13.9188 2.52835 13.9864 2.53517 14.0697 2.54946C14.2397 2.57866 14.4555 2.63568 14.6626 2.74232C14.8658 2.84697 15.0514 2.99419 15.1888 3.20647C15.3243 3.41589 15.4416 3.73249 15.4416 4.22261C15.4416 4.71273 15.3243 5.02933 15.1888 5.23875C15.0514 5.45103 14.8658 5.59825 14.6626 5.7029C14.4555 5.80954 14.2397 5.86656 14.0697 5.89576C13.9864 5.91005 13.9188 5.91687 13.8753 5.92007C13.8537 5.92166 13.8385 5.92233 13.8306 5.9226L13.8263 5.92273H2.76623V7.44522H13.8312V6.68397C13.8312 7.44522 13.832 7.44522 13.832 7.44522L13.8329 7.44522L13.8348 7.44521L13.8394 7.44518L13.8449 7.44513L13.8513 7.44503L13.8612 7.44484L13.8854 7.44415C13.9126 7.44322 13.9486 7.44148 13.9924 7.43826C14.0795 7.43185 14.1987 7.41944 14.3394 7.39527C14.6174 7.34755 14.999 7.25073 15.3894 7.04971C15.7836 6.84669 16.1953 6.5324 16.506 6.05242C16.8185 5.56958 17 4.96317 17 4.22261C17 3.48205 16.8185 2.87564 16.506 2.3928C16.1953 1.91282 15.7836 1.59853 15.3894 1.39551C14.999 1.19449 14.6174 1.09767 14.3394 1.04995C14.1987 1.02578 14.0795 1.01337 13.9924 1.00696C13.9486 1.00374 13.9126 1.002 13.8854 1.00107C13.8718 1.0006 13.8603 1.00034 13.8513 1.00019L13.8394 1.00004L13.8348 1.00001L13.8329 1L13.832 1C13.832 1 13.8312 1 13.8312 1.76125V1H1V2.52249ZM17 11.0773H4.17368L4.16936 11.0774C4.16155 11.0777 4.14629 11.0783 4.12467 11.0799C4.08116 11.0831 4.0136 11.0899 3.93032 11.1042C3.76026 11.1334 3.54448 11.1905 3.33741 11.2971C3.13421 11.4018 2.9486 11.549 2.81121 11.7612C2.67566 11.9707 2.55844 12.2873 2.55844 12.7774C2.55844 13.2675 2.67566 13.5841 2.81121 13.7935C2.9486 14.0058 3.13421 14.153 3.33741 14.2577C3.54448 14.3643 3.76026 14.4213 3.93032 14.4505C4.0136 14.4648 4.08116 14.4716 4.12467 14.4748C4.14629 14.4764 4.16155 14.4771 4.16936 14.4774L4.17368 14.4775H15.2338V16H4.16883V15.2388C4.16883 16 4.168 16 4.168 16L4.16711 16L4.16516 16L4.16058 16L4.15506 15.9999L4.14873 15.9998L4.13876 15.9996L4.11463 15.9989C4.08744 15.998 4.05136 15.9963 4.00764 15.993C3.92046 15.9866 3.80134 15.9742 3.66059 15.9501C3.3826 15.9023 3.00098 15.8055 2.61064 15.6045C2.21644 15.4015 1.80465 15.0872 1.49399 14.6072C1.18148 14.1244 1 13.5179 1 12.7774C1 12.0368 1.18148 11.4304 1.49399 10.9476C1.80465 10.4676 2.21644 10.1533 2.61064 9.95029C3.00098 9.74927 3.3826 9.65245 3.66059 9.60473C3.80134 9.58057 3.92046 9.56815 4.00764 9.56174C4.05136 9.55852 4.08744 9.55678 4.11463 9.55585C4.12823 9.55538 4.13965 9.55512 4.14873 9.55497L4.16058 9.55482L4.16516 9.55479L4.16711 9.55478L4.168 9.55478C4.168 9.55478 4.16883 9.55478 4.16883 10.316V9.55478H17V11.0773Z" fill="url(#paint0_linear_2086_67)" stroke="url(#paint1_linear_2086_67)" stroke-linejoin="round"/>
<defs>
<linearGradient id="paint0_linear_2086_67" x1="9" y1="1" x2="9" y2="16" gradientUnits="userSpaceOnUse">
<stop stop-color="#00C1FD"/>
<stop offset="1" stop-color="#B5F1FF"/>
</linearGradient>
<linearGradient id="paint1_linear_2086_67" x1="9" y1="1" x2="9" y2="16" gradientUnits="userSpaceOnUse">
<stop stop-color="#00C1FD"/>
<stop offset="1" stop-color="#B5F1FF"/>
</linearGradient>
</defs>
</svg>
