<svg width="20" height="20" viewBox="0 0 20 20" fill="none" xmlns="http://www.w3.org/2000/svg">
<path d="M13.952 12.8307L13.4464 13.3636C13.4464 13.3636 12.2431 14.6295 8.95978 11.173C5.67647 7.71651 6.87979 6.45062 6.87979 6.45062L7.19757 6.11414C7.98312 5.28825 8.05756 3.96118 7.37201 2.99177L5.97202 1.01175C5.12314 -0.188261 3.48426 -0.347086 2.51205 0.676452L0.767613 2.51176C0.286505 3.02 -0.0357153 3.67648 0.00317331 4.40589C0.103173 6.27297 0.900945 10.2883 5.3498 14.973C10.0687 19.9401 14.4964 20.1378 16.3064 19.959C16.8797 19.9025 17.3775 19.5943 17.7786 19.1707L19.3564 17.5095C20.423 16.3883 20.123 14.4648 18.7586 13.6801L16.6364 12.4577C15.7408 11.9424 14.652 12.0942 13.952 12.8307Z" fill="#BDBDBD"/>
</svg>
