<svg width="25" height="25" viewBox="0 0 25 25" fill="none" xmlns="http://www.w3.org/2000/svg">
<path d="M22 11.2017C20.2306 11.2058 18.5046 10.6693 17.0658 9.6681V16.6511C17.0654 17.9444 16.6587 19.2068 15.9004 20.2694C15.142 21.332 14.068 22.1442 12.822 22.5974C11.576 23.0505 10.2174 23.1231 8.92784 22.8053C7.63828 22.4876 6.47925 21.7946 5.60571 20.8192C4.73218 19.8437 4.18578 18.6323 4.03958 17.3468C3.89338 16.0613 4.15434 14.763 4.78758 13.6256C5.42082 12.4882 6.39615 11.5658 7.58315 10.9819C8.77015 10.3979 10.1122 10.1801 11.43 10.3577V13.8699C10.827 13.6855 10.1795 13.6911 9.57991 13.8858C8.98036 14.0805 8.45942 14.4544 8.09148 14.9541C7.72355 15.4539 7.52745 16.0538 7.53117 16.6684C7.53489 17.2829 7.73826 17.8806 8.11222 18.376C8.48618 18.8715 9.01161 19.2394 9.61348 19.4272C10.2154 19.6151 10.8629 19.6132 11.4636 19.4219C12.0643 19.2306 12.5875 18.8597 12.9585 18.3621C13.3294 17.8645 13.5291 17.2657 13.5291 16.6511V3H17.0658C17.0634 3.29036 17.0884 3.58033 17.1406 3.86623C17.2635 4.50447 17.519 5.11163 17.8916 5.65057C18.2641 6.1895 18.7458 6.64889 19.3073 7.00062C20.106 7.51407 21.0424 7.78774 22 7.78754V11.2017Z" fill="#BDBDBD"/>
</svg>
